<?xml version="1.0" encoding="UTF-8"?>
<!DOCTYPE svg PUBLIC "-//W3C//DTD SVG 1.1//EN" "http://www.w3.org/Graphics/SVG/1.1/DTD/svg11.dtd">
<!-- Creator: CorelDRAW -->
<svg xmlns="http://www.w3.org/2000/svg" xml:space="preserve" width="2.50357in" height="2.8052in" version="1.1" style="shape-rendering:geometricPrecision; text-rendering:geometricPrecision; image-rendering:optimizeQuality; fill-rule:evenodd; clip-rule:evenodd"
viewBox="0 0 89.25 100.01"
 xmlns:xlink="http://www.w3.org/1999/xlink"
 xmlns:xodm="http://www.corel.com/coreldraw/odm/2003">
 <defs>
  <style type="text/css">
   <![CDATA[
    .fil0 {fill:#748943}
   ]]>
  </style>
 </defs>
 <g id="Layer_x0020_1">
  <metadata id="CorelCorpID_0Corel-Layer"/>
  <path class="fil0" d="M89.25 61.78l0 -17.05c0,-21.04 -17.19,-38.23 -38.23,-38.23 -31.04,0 -25.58,71.11 -25.58,-6.49l-25.44 0 0 53.25c0,18.7 10.46,34.78 25.44,42.22 5.78,2.87 12.38,4.54 19.12,4.54 1.1,0 2.2,0 3.3,-0.14 1.1,0.14 2.06,0.14 3.16,0.14 8.41,0 16.21,-2.73 22.54,-7.36 -7.56,-7.6 -17.98,-18.25 -18.88,-18.86l1.69 -2.91c2.21,-3.04 3.87,-4.3 7.35,-6.14 0.58,0.39 11.76,11.62 18.8,18.69 4.24,-6.15 6.73,-13.61 6.73,-21.67zm-67.65 4.46c0,1.81 3.06,4.32 4.64,5.9l13.13 13.13c1.13,1.13 1.7,2.04 3.6,2.04 1.62,0 3.25,-2.14 4.19,-3.08 2.18,-2.18 3.23,-2.48 3.23,-4.93 0,-1.6 -3.24,-4.36 -4.64,-5.75 -1.77,-1.77 -3.42,-3.42 -5.19,-5.19l-7.79 -7.79c-4.12,-4.12 -5.16,-1.55 -9.79,3.04 -0.73,0.73 -1.37,1.47 -1.37,2.63zm47.91 -5.78c1.94,0 2.71,-1.3 4.49,-3.08 2.18,-2.18 3.23,-2.48 3.23,-4.93 0,-1.6 -3.24,-4.36 -4.64,-5.75l-12.98 -12.98c-4.03,-4.03 -5.11,-1.64 -9.34,2.6 -0.65,0.65 -1.3,1.09 -1.62,2.09 -0.69,2.22 1.04,3.49 2.13,4.58l16.24 16.24c0.59,0.6 1.35,1.22 2.49,1.22zm-34.86 -2.52c0.19,0.72 7.54,7.76 8.05,8.27 1.4,1.4 2.68,2.68 4.08,4.08l4.19 4.12c0.92,-1.73 0.9,-2.2 2.31,-4.36 0.48,-0.73 0.85,-1.23 1.35,-1.91l1.56 -1.85 3.74 -2.94 3.15 -1.74c0.46,-0.23 0.82,-0.34 1.24,-0.54 -0.14,-0.53 -0.49,-0.72 -0.85,-1.08l-3.12 -3.11c-1.11,-1.11 -11.67,-11.82 -12.35,-12.27 -0.38,0.72 -0.63,1.51 -1.04,2.22 -1.26,2.16 -1.74,3.02 -3.36,4.95 -0.35,0.42 -0.43,0.56 -0.82,0.96 -2.76,2.75 -5,3.73 -8.12,5.23z"/>
 </g>
</svg>
